<svg version="1" xmlns="http://www.w3.org/2000/svg" width="400" height="400" viewBox="0 0 300.000000 300.000000"><path d="M49.2 11.6c-17.5 5.9-29.8 18.3-35.8 36.1-2.4 7.1-2.6 8.8-2.1 19.3.3 8.8 1.1 13.4 3.1 19.7 5.1 15.7 18.6 39.7 33.8 59.9C56.6 157.9 65.9 169 67 169c1.1 0 10.4-11.1 18.8-22.4C101 126.4 113.7 104 119.1 88c4.1-12.2 5.2-28.2 2.4-37.6-5.6-19.3-20.3-34.2-39.4-39.8-8.7-2.6-23.9-2.1-32.9 1zm26.6 36.3C82.5 51.3 86 57.2 86 65c0 11.1-7.9 19-19 19s-19-7.9-19-19 7.7-18.9 18.8-19c3.3 0 6.7.7 9 1.9zM215.2 112.6c-17.5 5.9-29.8 18.3-35.8 36.1-2.4 7.1-2.6 8.8-2.1 19.3.3 8.8 1.1 13.4 3.1 19.7 5.1 15.7 18.6 39.7 33.8 59.9 8.4 11.3 17.7 22.4 18.8 22.4 1.1 0 10.4-11.1 18.8-22.4 15.2-20.2 27.9-42.6 33.3-58.6 4.1-12.2 5.2-28.2 2.4-37.6-5.6-19.3-20.3-34.2-39.4-39.8-8.7-2.6-23.9-2.1-32.9 1zm26.6 36.3c6.7 3.4 10.2 9.3 10.2 17.1 0 11.1-7.9 19-19 19s-19-7.9-19-19 7.7-18.9 18.8-19c3.3 0 6.7.7 9 1.9zM62.1 181.4c-1.2 1.8-2.1 5-2.1 7.1 0 7.1 9.4 13.8 22.3 16.1 3.3.5 3.7.4 3.7-1.4 0-1.1.3-2.7.6-3.5.4-1.1-.5-1.6-3.3-2.2-4.7-.8-12.1-4-14.5-6.2-2.2-2-2.3-4.6-.3-6.3 2.1-1.7 1.9-2.3-1.4-4.8l-3-2.2-2 3.4zM120 195.2c0 3.9 1.2 4.5 9.3 5 9.5.6 13.2 2.8 13.2 7.7 0 2.4.6 3.3 2.7 4.2 3.8 1.6 4.8.5 4.8-5.2 0-4.2-.5-5.5-2.8-7.9-3.7-3.6-11.7-6-20.4-6-6.4 0-6.8.1-6.8 2.2zM110.8 227.6c-.4.3-5.8 1.6-12 2.9-6.3 1.2-13.3 3.2-15.6 4.4l-4.2 2.2 1.5 2.9c.9 1.7 1.8 3 2 3 .2 0 2.4-.9 4.7-1.9 2.4-1.1 9.7-3.1 16.2-4.5 6.6-1.4 12.3-2.9 12.8-3.4 1.4-1.4-.9-6.2-3-6.2-1 0-2.1.3-2.4.6zM67.9 265.8c-1.3 1.8-1.6 2.8-.9 3.7 1.9 2.3 13.4 6.8 24 9.6l10.5 2.7.8-2.1c1.5-4 .4-4.8-9.3-7.3-5.2-1.3-12.6-3.9-16.3-5.8l-6.8-3.3-2 2.5zM137 283.2v3.5l6.3.6c3.4.4 11.7.9 18.5 1.3l12.2.7v-7l-12.2-.7c-6.8-.4-15.1-.9-18.5-1.3l-6.3-.6v3.5zM223 281.1c-2.5.4-6.6.8-9.2.8-4.8.1-4.8.1-4.8 3.6 0 3.4.1 3.5 3.9 3.5 4.1 0 19.3-1.9 19.9-2.5.2-.2.1-1.7-.3-3.4-.7-3.4-1.3-3.5-9.5-2z"/></svg>